<?xml version="1.0" encoding="utf-8"?>
<!-- Generator: Adobe Illustrator 23.0.1, SVG Export Plug-In . SVG Version: 6.00 Build 0)  -->
<svg version="1.1" xmlns="http://www.w3.org/2000/svg" xmlns:xlink="http://www.w3.org/1999/xlink" x="0px" y="0px"
	 viewBox="0 0 576 576" style="enable-background:new 0 0 576 576;" xml:space="preserve">
<style type="text/css">
	.st0{clip-path:url(#SVGID_2_);fill:none;stroke:#FDDA00;stroke-width:12;}
	.st1{clip-path:url(#SVGID_2_);fill:#FFFFFF;}
	.st2{clip-path:url(#SVGID_4_);}
	.st3{clip-path:url(#SVGID_6_);fill:none;stroke:#000000;stroke-width:9;}
	.st4{clip-path:url(#SVGID_6_);fill:#FFFFFF;}
	.st5{clip-path:url(#SVGID_6_);fill:none;stroke:#000000;stroke-width:2;}
	.st6{clip-path:url(#SVGID_6_);}
	.st7{fill:#FFFFFF;}
	.st8{fill:#00A0DD;}
</style>
<g>
	<g>
		<defs>
			<rect id="SVGID_1_" x="31.47" y="86.17" width="517.74" height="419.84"/>
		</defs>
		<clipPath id="SVGID_2_">
			<use xlink:href="#SVGID_1_"  style="overflow:visible;"/>
		</clipPath>
		<path class="st0" d="M291.08,354.86c72.13,0,130.6-58.47,130.6-130.6c0-72.12-58.47-130.59-130.6-130.59
			c-72.13,0-130.6,58.47-130.6,130.59C160.48,296.39,218.95,354.86,291.08,354.86z"/>
		<path class="st1" d="M290.99,344.61c66.6,0.02,120.61-53.95,120.64-120.55s-53.95-120.62-120.55-120.64
			c-66.6-0.02-120.61,53.95-120.64,120.55C170.41,290.57,224.39,344.58,290.99,344.61"/>
	</g>
	<g>
		<defs>
			<path id="SVGID_3_" d="M170.44,223.97c-0.02,66.61,53.95,120.62,120.56,120.64c66.6,0.02,120.61-53.95,120.63-120.55
				c0.03-66.61-53.95-120.61-120.55-120.64C224.47,103.39,170.46,157.37,170.44,223.97"/>
		</defs>
		<clipPath id="SVGID_4_">
			<use xlink:href="#SVGID_3_"  style="overflow:visible;"/>
		</clipPath>
		<path class="st2" d="M401.65,113.66c-29.51-29.58-68.78-45.91-110.57-45.96c-41.78-0.05-81.09,16.18-110.68,45.69
			c-29.59,29.52-45.91,68.78-45.96,110.57c-0.05,41.78,16.17,81.09,45.69,110.68c29.51,29.59,68.78,45.91,110.57,45.96
			s81.1-16.18,110.68-45.69c29.58-29.51,45.91-68.79,45.96-110.57C447.39,182.55,431.17,143.25,401.65,113.66 M290.73,356.05
			C218,355.96,158.9,296.72,158.99,223.99c0.09-72.74,59.34-131.84,132.06-131.75c72.74,0.09,131.84,59.34,131.75,132.07
			C422.71,297.04,363.47,356.14,290.73,356.05"/>
		<polygon class="st2" points="418.81,225.36 418.79,221.27 320.46,219.8 415.03,192.82 413.98,188.87 317.49,212.8 402.61,161.41 
			400.56,157.87 314.6,205.78 382.99,135.04 380.1,132.15 308.83,200.72 356.54,114.05 352.99,112.02 302.42,196.5 326.35,101.02 
			322.4,99.95 294.92,195.4 292.96,96.07 288.87,96.08 287.39,194.55 260.38,99.88 256.43,100.93 280.32,197.27 229,112.27 
			225.46,114.32 273.45,200.43 202.6,131.93 199.7,134.82 268.17,205.98 181.64,158.35 179.6,161.89 264.2,212.54 168.57,188.57 
			167.51,192.52 262.85,219.97 163.66,221.93 163.67,226.02 262.22,227.5 167.44,254.54 168.49,258.48 264.8,234.6 179.86,285.89 
			181.91,289.42 268.01,241.44 199.49,312.32 202.37,315.21 273.57,246.7 225.94,333.24 229.48,335.27 280.09,250.74 256.13,346.34 
			260.08,347.4 287.56,251.96 289.52,351.22 293.61,351.21 295.09,252.81 322.1,347.48 326.05,346.43 302.13,249.98 353.48,335.02 
			357.02,332.97 309.1,247 379.87,315.42 382.77,312.54 314.16,241.23 400.83,288.94 402.87,285.4 318.45,234.87 413.89,258.78 
			414.95,254.83 319.4,227.33 		"/>
	</g>
	<g>
		<defs>
			<rect id="SVGID_5_" x="31.47" y="86.17" width="517.74" height="419.84"/>
		</defs>
		<clipPath id="SVGID_6_">
			<use xlink:href="#SVGID_5_"  style="overflow:visible;"/>
		</clipPath>
		<path class="st3" d="M290.99,344.61c66.6,0.02,120.61-53.95,120.64-120.55s-53.95-120.62-120.55-120.64
			c-66.6-0.02-120.61,53.95-120.64,120.55C170.41,290.57,224.39,344.58,290.99,344.61z"/>
		<path class="st4" d="M292,246.51c13.27,0,24.03-10.76,24.03-24.03c0-13.27-10.76-24.03-24.03-24.03s-24.03,10.76-24.03,24.03
			C267.97,235.76,278.73,246.51,292,246.51"/>
		
			<ellipse transform="matrix(0.3775 -0.926 0.926 0.3775 -24.2539 408.8952)" class="st5" cx="292" cy="222.49" rx="24.03" ry="24.03"/>
		<path class="st6" d="M292,236.26c7.61,0,13.78-6.17,13.78-13.78c0-7.61-6.17-13.77-13.78-13.77s-13.78,6.17-13.78,13.77
			C278.22,230.09,284.39,236.26,292,236.26"/>
	</g>
	<rect x="56.68" y="225.71" class="st7" width="451.92" height="280.29"/>
	<g>
		<path d="M68.28,363.59h19.7c7.27,0,12.03,3.66,12.03,11.17c0,4.54-2.1,7.82-5.79,9.59v0.13c4.94,1.2,7.61,5.49,7.61,11.61
			c0,7.06-4.43,12.55-14.93,12.55H68.28V363.59z M75.38,382.45h11.58c3.41,0,5.96-2.21,5.96-6.25c0-4.54-2.1-6.18-5.96-6.18H75.38
			V382.45z M75.38,402.19h12.54c4.31,0,6.81-2.59,6.81-7.13c0-4.42-2.5-6.94-6.81-6.94H75.38V402.19z"/>
		<path d="M108.64,363.59h7.1v45.04h-7.1V363.59z"/>
		<path d="M152.07,377.91c-1.19-5.17-4.2-8.96-10.1-8.96c-8.68,0-12.32,8.52-12.32,17.16s3.63,17.16,12.32,17.16
			c6.3,0,9.76-5.24,10.33-11.8h6.93c-0.57,10.79-7.44,18.23-17.26,18.23c-12.15,0-19.41-10.72-19.41-23.59
			c0-12.87,7.27-23.59,19.41-23.59c9.14,0.06,16.35,5.68,17.2,15.39H152.07z"/>
		<path d="M175.18,390.97l-15.21-27.38h8.23l10.73,20.19l10.56-20.19h7.95l-15.16,27.38v17.66h-7.1V390.97z"/>
		<path d="M226.66,377.91c-1.19-5.17-4.2-8.96-10.1-8.96c-8.68,0-12.32,8.52-12.32,17.16s3.63,17.16,12.32,17.16
			c6.3,0,9.76-5.24,10.33-11.8h6.93c-0.57,10.79-7.44,18.23-17.26,18.23c-12.15,0-19.41-10.72-19.41-23.59
			c0-12.87,7.27-23.59,19.41-23.59c9.14,0.06,16.35,5.68,17.2,15.39H226.66z"/>
		<path d="M240.63,363.59h7.1v38.23h20.6v6.81h-27.7V363.59z"/>
		<path d="M273.27,363.59h29.18v6.81h-22.08v11.8h20.43v6.43h-20.43v13.18h22.48v6.81h-29.57V363.59z"/>
		<path d="M322.09,363.59h32.81v6.81h-12.88v38.23h-7.1V370.4h-12.83V363.59z"/>
		<path d="M395.55,386.11c0,12.87-7.27,23.59-19.41,23.59c-12.15,0-19.41-10.72-19.41-23.59c0-12.87,7.27-23.59,19.41-23.59
			C388.28,362.52,395.55,373.24,395.55,386.11z M363.82,386.11c0,8.64,3.63,17.16,12.32,17.16c8.68,0,12.32-8.52,12.32-17.16
			s-3.63-17.16-12.32-17.16C367.45,368.95,363.82,377.47,363.82,386.11z"/>
		<path d="M401.91,363.59H409v26.24c0,6.06,0.34,13.06,9.54,13.06c9.2,0,9.54-7,9.54-13.06v-26.24h7.1v28.83
			c0,11.54-6.64,17.28-16.63,17.28c-9.99,0-16.63-5.74-16.63-17.28V363.59z"/>
		<path d="M443.75,363.59h19.36c8.86,0,13.4,4.54,13.4,12.17c0,8.64-5.39,10.85-6.7,11.35v0.13c2.44,0.38,6.02,2.4,6.02,9.52
			c0,5.24,0.68,10.03,2.21,11.86h-7.61c-1.08-1.96-1.08-4.42-1.08-6.62c0-8.26-1.53-11.92-8.06-11.92h-10.44v18.55h-7.09V363.59z
			 M450.84,384.09h11.64c4.48,0,6.92-2.46,6.92-7.19c0-5.74-3.35-6.88-7.04-6.88h-11.52V384.09z"/>
		<path d="M488.76,393.62c0,6.94,4.6,9.65,10.27,9.65c6.24,0,8.57-3.41,8.57-6.81c0-3.47-1.7-4.86-3.35-5.55
			c-2.84-1.2-6.53-2.02-12.09-3.72c-6.92-2.08-8.97-6.75-8.97-11.42c0-9.02,7.49-13.25,14.82-13.25c8.46,0,15.55,4.98,15.55,14.38
			h-7.09c-0.34-5.8-3.86-7.95-8.74-7.95c-3.29,0-7.44,1.32-7.44,5.87c0,3.15,1.93,4.92,4.83,5.8c0.62,0.19,9.59,2.78,11.69,3.47
			c5.34,1.77,7.89,6.81,7.89,11.48c0,10.09-8.06,14.13-16.12,14.13c-9.25,0-16.74-4.92-16.92-16.08H488.76z"/>
	</g>
	<g>
		<path class="st8" d="M68.31,246.54h23.91c20.26,0,23.91,19.01,23.91,48.15c0,35.11-5.47,50.93-24.82,50.93h-23V246.54z
			 M82.9,330.9h6.48c10.13,0,12.16-8.74,12.16-35.66c0-22.48-1.32-34-12.46-34H82.9V330.9z"/>
		<path class="st8" d="M127.27,345.61v-99.08h14.59v99.08H127.27z"/>
		<path class="st8" d="M165.26,314.67v2.91c0,9.3,1.92,15.26,9.62,15.26c4.46,0,8.71-3.88,8.71-12.21c0-9.02-3.34-12.35-12.97-16.93
			c-12.97-6.11-18.94-13.46-18.94-29.97c0-19.29,8.61-29.14,22.39-29.14c12.97,0,22.39,7.63,22.39,26.64v2.77h-13.98
			c0-9.3-2.33-14.71-7.9-14.71c-6.58,0-8.31,5.69-8.31,11.52c0,6.11,1.32,9.85,7.5,13.46l11.24,6.66
			c10.94,6.52,13.78,14.15,13.78,26.23c0,20.95-9.32,30.39-25.12,30.39c-16.51,0-23-10.55-23-28.86v-4.02H165.26z"/>
		<path class="st8" d="M237.79,279.98c0-14.43-2.13-20.68-8.71-20.68c-7.39,0-9.12,10.13-9.12,38.16c0,29.97,3.04,35.38,9.32,35.38
			c5.27,0,9.12-3.75,9.12-25.12h14.59c0,21.37-3.85,39.83-23,39.83c-21.88,0-24.62-21.37-24.62-51.48
			c0-30.11,2.74-51.48,24.62-51.48c20.87,0,22.39,20.95,22.39,35.38H237.79z"/>
		<path class="st8" d="M285.2,244.59c21.88,0,24.62,21.37,24.62,51.48c0,30.11-2.74,51.48-24.62,51.48
			c-21.88,0-24.62-21.37-24.62-51.48C260.58,265.96,263.32,244.59,285.2,244.59z M285.2,332.85c8.61,0,10.03-10.13,10.03-36.77
			c0-26.5-1.42-36.77-10.03-36.77c-8.61,0-10.03,10.27-10.03,36.77C275.17,322.72,276.59,332.85,285.2,332.85z"/>
		<path class="st8" d="M329.97,246.54l10.23,73.27h0.3l10.74-73.27h15.09l-16.61,99.08h-18.74l-16.61-99.08H329.97z"/>
		<path class="st8" d="M412.84,246.54v16.37H387v23.31h24.31v16.37H387v26.64h26.85v16.37h-41.43v-99.08H412.84z"/>
		<path class="st8" d="M421.95,246.54h26.95c11.95,0,19.25,8.6,19.25,25.53c0,13.18-3.85,22.06-12.06,24.42v0.28
			c9.93,1.8,11.45,9.3,11.65,30.25c0.1,10.41,0.51,15.82,3.24,17.76v0.83h-15.8c-1.42-2.78-1.72-6.52-1.82-10.41l-0.41-19.01
			c-0.2-7.77-2.73-12.49-8.61-12.49h-7.8v41.91h-14.59V246.54z M436.54,289.83h6.08c6.99,0,10.94-4.16,10.94-14.85
			c0-9.16-3.55-13.74-10.13-13.74h-6.89V289.83z"/>
		<path class="st8" d="M488.2,246.54l9.52,38.3h0.2l10.13-38.3h15.8l-18.74,60.08v38.99h-14.59v-38.99l-18.74-60.08H488.2z"/>
	</g>
</g>
</svg>
